<svg width="269" height="61" viewBox="0 0 269 61" fill="none" xmlns="http://www.w3.org/2000/svg">
<path d="M84.3944 39.5824C87.4761 39.5824 90.2014 38.0563 91.8557 35.7186L96.0502 39.9089C93.2581 43.1627 89.1158 45.224 84.492 45.224C76.0841 45.224 69.2681 38.408 69.2681 30C69.2681 21.5921 76.0841 14.7761 84.492 14.7761C88.599 14.7761 92.3261 16.4023 95.0646 19.046L90.4747 23.6312C88.8598 22.1897 86.7294 21.3136 84.3944 21.3136C79.3496 21.3136 75.26 25.4032 75.26 30.448C75.26 35.4928 79.3496 39.5824 84.3944 39.5824Z" fill="#1C2C4F"/>
<path d="M100.109 14.7761V44.5753H105.628V14.7761H100.109Z" fill="#1C2C4F"/>
<path fill-rule="evenodd" clip-rule="evenodd" d="M114.957 43.7036C116.62 44.6902 118.555 45.1835 120.759 45.1835C122.95 45.1835 124.878 44.6969 126.542 43.7239C128.219 42.7374 129.524 41.3792 130.457 39.6493C131.404 37.906 131.877 35.8991 131.877 33.6287C131.877 31.3717 131.411 29.3784 130.478 27.6485C129.544 25.9052 128.239 24.5402 126.562 23.5537C124.898 22.5671 122.964 22.0738 120.759 22.0738C118.595 22.0738 116.681 22.5604 115.018 23.5334C113.354 24.5064 112.049 25.8646 111.102 27.608C110.155 29.3378 109.682 31.3447 109.682 33.6287C109.682 35.8856 110.142 37.8857 111.061 39.629C111.995 41.3589 113.293 42.7171 114.957 43.7036ZM124.716 38.2506C123.85 39.4398 122.531 40.0345 120.759 40.0345C119.041 40.0345 117.736 39.4601 116.844 38.3114C115.964 37.1492 115.525 35.5882 115.525 33.6287C115.525 32.3583 115.707 31.2434 116.073 30.2838C116.451 29.3243 117.026 28.5743 117.797 28.0337C118.568 27.4931 119.555 27.2228 120.759 27.2228C122.504 27.2228 123.816 27.8039 124.695 28.9662C125.588 30.1284 126.034 31.6826 126.034 33.6287C126.034 35.5072 125.595 37.0478 124.716 38.2506Z" fill="#1C2C4F"/>
<path d="M143.684 45.224C141.966 45.224 140.566 44.9334 139.484 44.3523C138.402 43.7712 137.556 43.0347 136.948 42.1427C136.353 41.2508 135.927 40.325 135.67 39.3655C135.413 38.3925 135.257 37.5073 135.203 36.7099C135.149 35.9126 135.122 35.3315 135.122 34.9666V22.682H140.721V33.0205C140.721 33.5205 140.749 34.1625 140.803 34.9463C140.857 35.7166 141.026 36.4937 141.31 37.2775C141.594 38.0614 142.054 38.7168 142.689 39.2439C143.339 39.7709 144.252 40.0345 145.428 40.0345C145.902 40.0345 146.409 39.9601 146.95 39.8115C147.491 39.6628 147.998 39.379 148.472 38.9601C148.945 38.5276 149.331 37.8992 149.628 37.0748C149.939 36.2369 150.095 35.1423 150.095 33.7908V22.682H155.654V44.5753H150.785V42.3177C150.275 42.8844 149.687 43.3869 149.02 43.8253C147.613 44.7578 145.834 45.224 143.684 45.224Z" fill="#1C2C4F"/>
<path fill-rule="evenodd" clip-rule="evenodd" d="M164.104 43.6631C165.619 44.6767 167.384 45.1835 169.399 45.1835C171.577 45.1835 173.396 44.6767 174.857 43.6631C175.017 43.5521 175.172 43.4368 175.324 43.3171V44.5753H180.193V15.3842H174.634V23.388C173.27 22.5119 171.62 22.0738 169.683 22.0738C167.587 22.0738 165.761 22.5739 164.205 23.5739C162.65 24.574 161.439 25.9457 160.574 27.6891C159.721 29.4189 159.295 31.3988 159.295 33.6287C159.295 35.818 159.715 37.7843 160.553 39.5277C161.405 41.271 162.589 42.6495 164.104 43.6631ZM175.324 33.6287C175.324 34.9531 175.161 36.1153 174.837 37.1154C174.512 38.1154 173.978 38.8925 173.234 39.4466C172.503 40.0007 171.523 40.2777 170.292 40.2777C169.102 40.2777 168.128 39.9804 167.37 39.3858C166.613 38.7912 166.052 37.9938 165.686 36.9937C165.321 35.9802 165.139 34.8585 165.139 33.6287C165.139 32.4124 165.328 31.3042 165.707 30.3041C166.085 29.2905 166.667 28.4864 167.451 27.8918C168.25 27.2836 169.264 26.9796 170.495 26.9796C171.644 26.9796 172.571 27.2566 173.274 27.8107C173.991 28.3648 174.512 29.1419 174.837 30.1419C175.161 31.142 175.324 32.3042 175.324 33.6287Z" fill="#1C2C4F"/>
<path d="M184.656 33.9125V29.6554H196.83V33.9125H184.656Z" fill="#1C2C4F"/>
<path d="M201.696 15.3842V44.5753H207.214V15.3842H201.696Z" fill="#1C2C4F"/>
<path fill-rule="evenodd" clip-rule="evenodd" d="M210.456 44.5753L219.383 15.3842H227.62L236.548 44.5753H230.867L228.988 38.4938H217.987L216.137 44.5753H210.456ZM223.445 20.5511L227.397 33.3448H219.553L223.445 20.5511Z" fill="#1C2C4F"/>
<path d="M239.372 15.3842V44.5753H244.526V27.1417L253.006 44.5753H254.954L263.435 27.1417V44.5753H268.588V15.3842H263.638L253.98 34.7639L244.323 15.3842H239.372Z" fill="#1C2C4F"/>
<path d="M29.7813 50.5517L12.9253 36.5051L10.2083 12.0476L0 10.9133L3.93971 46.3817L20.3097 60.0233L29.7813 50.5517Z" fill="#6EDEFF"/>
<path d="M1.13525 21.1334L9.26532 11.9429L10.2083 12.0477L12.9253 36.5051L29.7813 50.5517L20.3097 60.0234L3.93976 46.3817L1.13525 21.1334Z" fill="#5CCDF0"/>
<path d="M1.13525 21.1334L9.26532 11.9429L10.2083 12.0477L12.9253 36.5051L29.7813 50.5517L20.3097 60.0234L3.93976 46.3817L1.13525 21.1334Z" fill="url(#paint0_linear_347_1898)"/>
<path d="M21.727 6.59094L11.519 5.45673L14.8531 35.4684L31.2231 49.11L40.6945 39.6386L23.8381 25.5917L21.727 6.59094Z" fill="#216BFF"/>
<path d="M12.6528 15.6623L20.7714 6.48474L21.727 6.59092L23.8382 25.5917L40.6945 39.6386L31.2231 49.11L14.8531 35.4684L12.6528 15.6623Z" fill="#0E5AF0"/>
<path opacity="0.52" d="M12.6528 15.6623L20.7714 6.48474L21.727 6.59092L23.8382 25.5917L40.6945 39.6386L31.2231 49.11L14.8531 35.4684L12.6528 15.6623Z" fill="url(#paint1_linear_347_1898)"/>
<path d="M23.0381 0L47.593 2.72833L53.0497 27.2833L42.1364 38.1967L25.7664 24.555L23.0381 0Z" fill="#083589"/>
<mask id="mask0_347_1898" style="mask-type:alpha" maskUnits="userSpaceOnUse" x="23" y="0" width="31" height="39">
<path d="M23.0381 0L47.593 2.72833L53.0497 27.2833L42.1364 38.1967L25.7664 24.555L23.0381 0Z" fill="white"/>
</mask>
<g mask="url(#mask0_347_1898)">
<g style="mix-blend-mode:plus-lighter" opacity="0.12" filter="url(#filter0_f_347_1898)">
<path d="M29.1304 -13.1992L53.6853 -10.4709L59.142 14.0841L48.2286 24.9974L31.8587 11.3558L29.1304 -13.1992Z" fill="white"/>
</g>
</g>
<defs>
<filter id="filter0_f_347_1898" x="10.1304" y="-32.1992" width="68.0117" height="76.1967" filterUnits="userSpaceOnUse" color-interpolation-filters="sRGB">
<feFlood flood-opacity="0" result="BackgroundImageFix"/>
<feBlend mode="normal" in="SourceGraphic" in2="BackgroundImageFix" result="shape"/>
<feGaussianBlur stdDeviation="9.5" result="effect1_foregroundBlur_347_1898"/>
</filter>
<linearGradient id="paint0_linear_347_1898" x1="4.28636" y1="44.7126" x2="29.3321" y2="48.9656" gradientUnits="userSpaceOnUse">
<stop stop-color="#2EA1CA" stop-opacity="0"/>
<stop offset="0.75" stop-color="#2EA1CA"/>
</linearGradient>
<linearGradient id="paint1_linear_347_1898" x1="16.3261" y1="37.3028" x2="38.4429" y2="42.7445" gradientUnits="userSpaceOnUse">
<stop stop-color="#0037D2" stop-opacity="0"/>
<stop offset="0.75" stop-color="#0037D2"/>
</linearGradient>
</defs>
</svg>
