<svg class="h-8 w-8 group-hover:scale-105 transition-transform duration-300 ease-out" viewBox="0 0 71.0173 71.14559" xmlns="http://www.w3.org/2000/svg">
                                <defs>
                                    <linearGradient id="goldGradient" x1="0%" y1="0%" x2="100%" y2="100%">
                                        <stop offset="0%" style="
                                                    stop-color: #bf953f;
                                                    stop-opacity: 1;
                                                "></stop>
                                        <stop offset="25%" style="
                                                    stop-color: #fcf6ba;
                                                    stop-opacity: 1;
                                                "></stop>
                                        <stop offset="50%" style="
                                                    stop-color: #b38728;
                                                    stop-opacity: 1;
                                                "></stop>
                                        <stop offset="75%" style="
                                                    stop-color: #fbf5b7;
                                                    stop-opacity: 1;
                                                "></stop>
                                        <stop offset="100%" style="
                                                    stop-color: #aa771c;
                                                    stop-opacity: 1;
                                                "></stop>
                                    </linearGradient>
                                </defs>
                                <g transform="translate(-66.11703 -71.28636)" fill="url(#goldGradient)" stroke="url(#goldGradient)" stroke-width="1.5" stroke-linejoin="round" shape-rendering="geometricPrecision">
                                    <path d="M110.65547 102.1196c-1.75397-.81671-3.17827-2.2634-4.04231-4.10587-.67869-1.44724-.69592-1.6217-.82545-8.35726-.12834-6.67404-.15066-6.90493-.74846-7.74306-.80073-1.12264-1.85508-1.64965-3.30031-1.64965-1.29473 0-2.5514.70187-3.46752 1.93665-.5036.67877-.56542 1.20346-.68579 5.82083-.13229 5.07482-.13229 5.07482-4.36563 5.07482-4.23333 0-4.23333 0-4.3054-5.15503-.0406-2.90248.0499-5.7425.20703-6.4995.47746-2.29991 1.71703-4.53397 3.51117-6.3281 1.80875-1.80875 3.57764-2.83812 5.93001-3.45083 1.73181-.45108 4.4466-.50383 6.11582-.11883 3.27226.75473 6.88443 3.52813 8.33865 6.40234 1.43282 2.8319 1.49514 3.43721 1.49854 14.55463.003 10.25261.003 10.25261-1.25363 10.25002-.76306-.002-1.78708-.24951-2.60672-.63116zm3.06974-9.5397c0-5.85207-.11041-9.90699-.29358-10.78176-.16148-.77115-.71355-2.2087-1.22684-3.19458-2.25516-4.33144-7.1604-6.85383-12.09622-6.22017-.87423.11224-2.4219.60332-3.46994 1.10103-3.5535 1.68756-6.08237 5.04305-6.7083 8.90114-.15302.94306-.2791 3.53036-.2802 5.74955-.002 4.0349-.002 4.0349 3.54886 4.0349 3.55086 0 3.55086 0 3.63802-4.82865.0816-4.52012.12667-4.89219.7055-5.82317.8471-1.36244 2.53579-2.31276 4.10976-2.31276.68311 0 1.62701.16085 2.09755.35746 1.30318.5445 2.47091 2.0445 2.80525 3.60345.16156.75334.29213 3.96933.29356 7.23076.002 5.62643.029 5.9297.62906 7.19687.5608 1.18424 1.47812 2.23199 2.88885 3.2996.39851.30158 2.45929.98509 3.16024 1.04817.10914.01.19843-4.203.19843-9.36183z"></path>
                                    <path d="M96.95028 97.9142c-.81671 1.75397-2.26341 3.17827-4.10588 4.04231-1.44724.67869-1.6217.69592-8.35726.82545-6.67403.12834-6.90492.15066-7.74305.74846-1.12264.80073-1.64966 1.85508-1.64966 3.30031 0 1.29473.70187 2.55141 1.93665 3.46752.67877.50361 1.20347.56542 5.82083.68579 5.07482.13229 5.07482.13229 5.07482 4.36563 0 4.23333 0 4.23333-5.15503 4.3054-2.90247.0406-5.7425-.0499-6.4995-.20703-2.29991-.47746-4.53396-1.71703-6.3281-3.51117-1.80875-1.80875-2.83811-3.57764-3.45083-5.93001-.45108-1.73181-.50382-4.4466-.11883-6.11582.75474-3.27226 3.52813-6.88444 6.40234-8.33866 2.8319-1.43282 3.43722-1.49514 14.55463-1.49854 10.25262-.003 10.25262-.003 10.25003 1.25363-.002.76306-.24951 1.78708-.63116 2.60672zm-9.5397-3.06975c-5.85208 0-9.907.11041-10.78177.29358-.77114.16148-2.2087.71355-3.19457 1.22684-4.33144 2.25516-6.85384 7.16041-6.22017 12.09623.11223.87423.60332 2.4219 1.10102 3.46994 1.68756 3.55351 5.04306 6.08237 8.90114 6.70831.94307.15301 3.53037.27909 5.74956.28019 4.03489.002 4.03489.002 4.03489-3.54886 0-3.55086 0-3.55086-4.82864-3.63802-4.52012-.0816-4.8922-.12667-5.82317-.7055-1.36245-.84709-2.31277-2.53579-2.31277-4.10976 0-.68311.16086-1.62701.35746-2.09755.5445-1.30318 2.0445-2.47091 3.60346-2.80525.75334-.16156 3.96933-.29213 7.23075-.29356 5.62643-.002 5.9297-.029 7.19687-.62906 1.18424-.5608 2.23199-1.47812 3.2996-2.88886.30159-.3985.9851-2.45929 1.04818-3.16024.01-.10914-4.20301-.19843-9.36184-.19843z"></path>
                                    <path d="M92.68071 111.5987c1.75397.81671 3.17828 2.26341 4.04232 4.10588.6787 1.44724.69592 1.62169.82545 8.35727.12834 6.67403.15066 6.90492.74846 7.74305.80073 1.12264 1.85508 1.64966 3.30031 1.64966 1.29473 0 2.55141-.70187 3.46752-1.93665.50361-.67877.56542-1.20347.68579-5.82083.13229-5.07482.13229-5.07482 4.36563-5.07482 4.23333 0 4.23333 0 4.3054 5.15503.0406 2.90247-.0499 5.7425-.20703 6.49949-.47746 2.29992-1.71703 4.53397-3.51117 6.32811-1.80875 1.80875-3.57764 2.83811-5.93001 3.45083-1.73181.45108-4.4466.50382-6.11582.11883-3.27226-.75474-6.88444-3.52813-8.33866-6.40234-1.43282-2.83191-1.49514-3.43722-1.49854-14.55463-.003-10.25263-.003-10.25263 1.25363-10.25004.76306.002 1.78708.24951 2.60672.63116zm-3.06974 9.53971c0 5.85208.11041 9.90699.29358 10.78177.16148.77114.71355 2.2087 1.22684 3.19457 2.25516 4.33144 7.16041 6.85384 12.09623 6.22017.87423-.11223 2.4219-.60332 3.46994-1.10102 3.55351-1.68756 6.08237-5.04306 6.70831-8.90114.15301-.94307.27909-3.53037.28019-5.74956.002-4.03489.002-4.03489-3.54886-4.03489-3.55086 0-3.55086 0-3.63802 4.82864-.0816 4.52012-.12667 4.89219-.7055 5.82317-.84709 1.36245-2.53579 2.31277-4.10976 2.31277-.68311 0-1.62701-.16086-2.09755-.35746-1.30318-.54451-2.4709-2.04451-2.80525-3.60346-.16156-.75334-.29213-3.96933-.29356-7.23075-.002-5.62643-.029-5.92971-.62906-7.19688-.5608-1.18424-1.47813-2.23199-2.88886-3.29961-.3985-.30158-2.45929-.98509-3.16024-1.04817-.10914-.01-.19843 4.20301-.19843 9.36185z"></path>
                                    <path d="M106.30107 115.80413c.81671-1.75397 2.26341-3.17828 4.10588-4.04232 1.44724-.67869 1.62169-.69592 8.35727-.82545 6.67404-.12834 6.90493-.15066 7.74306-.74846 1.12264-.80073 1.64966-1.85508 1.64966-3.30031 0-1.29473-.70187-2.55141-1.93665-3.46752-.67877-.50361-1.20347-.56542-5.82083-.68579-5.07483-.13229-5.07483-.13229-5.07483-4.36563 0-4.23333 0-4.23333 5.15504-4.3054 2.90247-.0406 5.7425.0499 6.49949.20703 2.29992.47746 4.53397 1.71703 6.32811 3.51117 1.80875 1.80875 2.83811 3.57764 3.45083 5.93001.45108 1.73181.50382 4.4466.11883 6.11582-.75474 3.27226-3.52813 6.88444-6.40234 8.33866-2.83191 1.43282-3.43722 1.49514-14.55464 1.49854-10.25263.003-10.25263.003-10.25004-1.25363.002-.76306.24951-1.78708.63116-2.60672zm9.53971 3.06974c5.85209 0 9.907-.11041 10.78178-.29358.77114-.16148 2.2087-.71355 3.19457-1.22684 4.33144-2.25516 6.85384-7.16041 6.22017-12.09623-.11223-.87423-.60332-2.4219-1.10102-3.46994-1.68756-3.5535-5.04306-6.08237-8.90114-6.7083-.94307-.15302-3.53037-.2791-5.74956-.2802-4.0349-.002-4.0349-.002-4.0349 3.54886 0 3.55086 0 3.55086 4.82865 3.63802 4.52012.0816 4.89219.12667 5.82317.7055 1.36245.84709 2.31277 2.53579 2.31277 4.10976 0 .68311-.16086 1.62701-.35746 2.09755-.54451 1.30318-2.04451 2.47091-3.60346 2.80525-.75334.16156-3.96933.29213-7.23076.29356-5.62643.002-5.92971.029-7.19688.62906-1.18424.5608-2.23199 1.47813-3.29961 2.88886-.30158.39851-.98509 2.45929-1.04817 3.16024-.01.10914 4.20301.19843 9.36185.19843z"></path>
                                </g>
                            </svg>
